<svg width="474" height="197" viewBox="0 0 474 197" fill="none" xmlns="http://www.w3.org/2000/svg">
<path fill-rule="evenodd" clip-rule="evenodd" d="M70 45C82.4264 45 92.5 34.9264 92.5 22.5C92.5 10.0736 82.4264 0 70 0C57.5736 0 47.5 10.0736 47.5 22.5C47.5 34.9264 57.5736 45 70 45ZM0 82.7332C0 82.5854 0.0654234 82.4451 0.178694 82.3501L46.1982 43.7531C46.3752 43.6046 46.6309 43.5968 46.8167 43.7341L69.2149 60.2892C69.3857 60.4155 69.6176 60.42 69.7932 60.3006L94.182 43.7162C94.3695 43.5888 94.6193 43.6034 94.7906 43.7519L139.327 82.3505C139.437 82.4454 139.5 82.5833 139.5 82.7283V114.923C139.5 115.349 139.002 115.58 138.677 115.305L95.3226 78.6946C94.9975 78.4201 94.5 78.6512 94.5 79.0766V123.388C94.5 123.462 94.5162 123.534 94.5474 123.601L128.666 196.288C128.821 196.619 128.579 197 128.213 197H98.3183C98.1241 197 97.9475 196.888 97.8653 196.712L69.953 136.97C69.7734 136.585 69.2266 136.585 69.047 136.97L41.1347 196.712C41.0525 196.888 40.8759 197 40.6817 197H11.3017C10.9317 197 10.6899 196.612 10.8526 196.28L46.449 123.604C46.4826 123.536 46.5 123.46 46.5 123.384V79.0543C46.5 78.6326 46.0101 78.4003 45.6836 78.6672L0.816392 115.333C0.489876 115.6 0 115.367 0 114.946V82.7332Z" fill="#FF1820"/>
<path fill-rule="evenodd" clip-rule="evenodd" d="M237 45C249.426 45 259.5 34.9264 259.5 22.5C259.5 10.0736 249.426 0 237 0C224.574 0 214.5 10.0736 214.5 22.5C214.5 34.9264 224.574 45 237 45ZM167 82.7332C167 82.5854 167.065 82.4451 167.179 82.3501L213.198 43.7531C213.375 43.6046 213.631 43.5968 213.817 43.7341L236.215 60.2892C236.386 60.4155 236.618 60.42 236.793 60.3006L261.182 43.7162C261.369 43.5888 261.619 43.6034 261.791 43.7519L306.327 82.3505C306.437 82.4454 306.5 82.5833 306.5 82.7283V114.923C306.5 115.349 306.002 115.58 305.677 115.305L262.323 78.6946C261.998 78.4201 261.5 78.6512 261.5 79.0766V123.388C261.5 123.462 261.516 123.534 261.547 123.601L295.666 196.288C295.821 196.619 295.579 197 295.213 197H265.318C265.124 197 264.947 196.888 264.865 196.712L236.953 136.97C236.773 136.585 236.227 136.585 236.047 136.97L208.135 196.712C208.053 196.888 207.876 197 207.682 197H178.302C177.932 197 177.69 196.612 177.853 196.28L213.449 123.604C213.483 123.536 213.5 123.46 213.5 123.384V79.0543C213.5 78.6326 213.01 78.4003 212.684 78.6672L167.816 115.333C167.49 115.6 167 115.367 167 114.946V82.7332Z" fill="#FEED01"/>
<path fill-rule="evenodd" clip-rule="evenodd" d="M404 45C416.426 45 426.5 34.9264 426.5 22.5C426.5 10.0736 416.426 0 404 0C391.574 0 381.5 10.0736 381.5 22.5C381.5 34.9264 391.574 45 404 45ZM334 82.7332C334 82.5854 334.065 82.4451 334.179 82.3501L380.198 43.7531C380.375 43.6046 380.631 43.5968 380.817 43.7341L403.215 60.2892C403.386 60.4155 403.618 60.42 403.793 60.3006L428.182 43.7162C428.369 43.5888 428.619 43.6034 428.791 43.7519L473.327 82.3505C473.437 82.4454 473.5 82.5833 473.5 82.7283V114.923C473.5 115.349 473.002 115.58 472.677 115.305L429.323 78.6946C428.998 78.4201 428.5 78.6512 428.5 79.0766V123.388C428.5 123.462 428.516 123.534 428.547 123.601L462.666 196.288C462.821 196.619 462.579 197 462.213 197H432.318C432.124 197 431.947 196.888 431.865 196.712L403.953 136.97C403.773 136.585 403.227 136.585 403.047 136.97L375.135 196.712C375.053 196.888 374.876 197 374.682 197H345.302C344.932 197 344.69 196.612 344.853 196.28L380.449 123.604C380.483 123.536 380.5 123.46 380.5 123.384V79.0543C380.5 78.6326 380.01 78.4003 379.684 78.6672L334.816 115.333C334.49 115.6 334 115.367 334 114.946V82.7332Z" fill="#009746"/>
</svg>
